<svg xmlns="http://www.w3.org/2000/svg" width="24" height="24" viewBox="0 0 24 24" fill="none" stroke="currentColor" stroke-width="2" stroke-linecap="round" stroke-linejoin="round" class="icon icon-tabler icons-tabler-outline icon-tabler-brand-bluesky">
  <path stroke="none" d="M0 0h24v24H0z" fill="none"/>
  <path d="M6.335 5.145c-1.653 -1.534 -1.751 -1.47 -2.028 -.931c-.395 .764 -.537 2.753 .19 8.602c.945 7.6 9.503 6.185 9.503 6.185c0 0 8.558 1.415 9.503 -6.185c.726 -5.849 .585 -7.838 .19 -8.602c-.277 -.539 -.375 -.603 -2.028 .931c-.5 .463 -3.422 3.191 -4.171 4.23c-.35 1.764 .5 3.328 .5 3.328c-3 -2.5 -5 1 -6 4c-1 -3 -3 -6.5 -6 -4c0 0 .85 -1.564 .5 -3.328c-.749 -1.039 -3.671 -3.767 -4.171 -4.23z" />
</svg>